<svg width="298" height="363" viewBox="0 0 298 363" fill="none" xmlns="http://www.w3.org/2000/svg">
<rect x="1" y="1" width="296" height="361" rx="16" fill="white"/>
<rect x="1" y="1" width="296" height="361" rx="16" stroke="#F9FCFF"/>
<g clip-path="url(#clip0_8_976)">
<path opacity="0.2" d="M90 40H40C38.6739 40 37.4021 40.5268 36.4645 41.4645C35.5268 42.4021 35 43.6739 35 45V80C35 81.3261 35.5268 82.5979 36.4645 83.5355C37.4021 84.4732 38.6739 85 40 85H90C91.3261 85 92.5979 84.4732 93.5355 83.5355C94.4732 82.5979 95 81.3261 95 80V45C95 43.6739 94.4732 42.4021 93.5355 41.4645C92.5979 40.5268 91.3261 40 90 40ZM60 72.5V52.5L75 62.5L60 72.5Z" fill="#1A2434"/>
<path d="M40 85H90C92.7614 85 95 82.7614 95 80V45C95 42.2386 92.7614 40 90 40L40 40C37.2386 40 35 42.2386 35 45L35 80C35 82.7614 37.2386 85 40 85Z" stroke="#1A2434" stroke-width="2" stroke-linecap="round" stroke-linejoin="round"/>
<path d="M75 95H55" stroke="#1A2434" stroke-width="2" stroke-linecap="round" stroke-linejoin="round"/>
<path d="M75 62.5L60 52.5V72.5L75 62.5Z" stroke="#1A2434" stroke-width="2" stroke-linecap="round" stroke-linejoin="round"/>
</g>
<path d="M26.848 153V135.12H29.68V153H26.848ZM33.1231 153V140.016H35.7151V142.56L35.4031 142.224C35.7231 141.408 36.2351 140.792 36.9391 140.376C37.6431 139.944 38.4591 139.728 39.3871 139.728C40.3471 139.728 41.1951 139.936 41.9311 140.352C42.6671 140.768 43.2431 141.344 43.6591 142.08C44.0751 142.816 44.2831 143.664 44.2831 144.624V153H41.5951V145.344C41.5951 144.688 41.4751 144.136 41.2351 143.688C40.9951 143.224 40.6511 142.872 40.2031 142.632C39.7711 142.376 39.2751 142.248 38.7151 142.248C38.1551 142.248 37.6511 142.376 37.2031 142.632C36.7711 142.872 36.4351 143.224 36.1951 143.688C35.9551 144.152 35.8351 144.704 35.8351 145.344V153H33.1231ZM52.8016 153.144C51.4416 153.144 50.3856 152.76 49.6336 151.992C48.8816 151.224 48.5056 150.144 48.5056 148.752V142.464H46.2256V140.016H46.5856C47.1936 140.016 47.6656 139.84 48.0016 139.488C48.3376 139.136 48.5056 138.656 48.5056 138.048V137.04H51.2176V140.016H54.1696V142.464H51.2176V148.632C51.2176 149.08 51.2896 149.464 51.4336 149.784C51.5776 150.088 51.8096 150.328 52.1296 150.504C52.4496 150.664 52.8656 150.744 53.3776 150.744C53.5056 150.744 53.6496 150.736 53.8096 150.72C53.9696 150.704 54.1216 150.688 54.2656 150.672V153C54.0416 153.032 53.7936 153.064 53.5216 153.096C53.2496 153.128 53.0096 153.144 52.8016 153.144ZM62.7738 153.288C61.4778 153.288 60.3258 152.992 59.3178 152.4C58.3258 151.792 57.5498 150.976 56.9898 149.952C56.4298 148.912 56.1498 147.752 56.1498 146.472C56.1498 145.16 56.4298 144 56.9898 142.992C57.5658 141.984 58.3338 141.192 59.2938 140.616C60.2538 140.024 61.3418 139.728 62.5578 139.728C63.5338 139.728 64.4058 139.896 65.1738 140.232C65.9418 140.568 66.5898 141.032 67.1178 141.624C67.6458 142.2 68.0458 142.864 68.3177 143.616C68.6058 144.368 68.7498 145.168 68.7498 146.016C68.7498 146.224 68.7418 146.44 68.7258 146.664C68.7098 146.888 68.6778 147.096 68.6298 147.288H58.2858V145.128H67.0938L65.7978 146.112C65.9578 145.328 65.9018 144.632 65.6298 144.024C65.3738 143.4 64.9738 142.912 64.4298 142.56C63.9018 142.192 63.2778 142.008 62.5578 142.008C61.8378 142.008 61.1978 142.192 60.6378 142.56C60.0778 142.912 59.6458 143.424 59.3418 144.096C59.0378 144.752 58.9178 145.552 58.9818 146.496C58.9018 147.376 59.0218 148.144 59.3418 148.8C59.6778 149.456 60.1418 149.968 60.7338 150.336C61.3418 150.704 62.0298 150.888 62.7978 150.888C63.5818 150.888 64.2458 150.712 64.7898 150.36C65.3498 150.008 65.7898 149.552 66.1098 148.992L68.3177 150.072C68.0618 150.68 67.6618 151.232 67.1178 151.728C66.5898 152.208 65.9498 152.592 65.1978 152.88C64.4618 153.152 63.6538 153.288 62.7738 153.288ZM71.3965 153V140.016H73.9885V142.632L73.7485 142.248C74.0365 141.4 74.5005 140.792 75.1405 140.424C75.7805 140.04 76.5485 139.848 77.4445 139.848H78.2365V142.32H77.1085C76.2125 142.32 75.4845 142.6 74.9245 143.16C74.3805 143.704 74.1085 144.488 74.1085 145.512V153H71.3965ZM83.9798 153.288C83.0998 153.288 82.3238 153.136 81.6518 152.832C80.9958 152.512 80.4838 152.08 80.1158 151.536C79.7478 150.976 79.5638 150.32 79.5638 149.568C79.5638 148.864 79.7158 148.232 80.0198 147.672C80.3398 147.112 80.8278 146.64 81.4838 146.256C82.1398 145.872 82.9638 145.6 83.9558 145.44L88.4678 144.696V146.832L84.4838 147.528C83.7638 147.656 83.2358 147.888 82.8998 148.224C82.5638 148.544 82.3958 148.96 82.3958 149.472C82.3958 149.968 82.5798 150.376 82.9478 150.696C83.3318 151 83.8198 151.152 84.4118 151.152C85.1478 151.152 85.7878 150.992 86.3318 150.672C86.8918 150.352 87.3238 149.928 87.6278 149.4C87.9318 148.856 88.0838 148.256 88.0838 147.6V144.264C88.0838 143.624 87.8438 143.104 87.3638 142.704C86.8998 142.288 86.2758 142.08 85.4918 142.08C84.7718 142.08 84.1398 142.272 83.5958 142.656C83.0678 143.024 82.6758 143.504 82.4198 144.096L80.1638 142.968C80.4038 142.328 80.7958 141.768 81.3398 141.288C81.8838 140.792 82.5158 140.408 83.2358 140.136C83.9718 139.864 84.7478 139.728 85.5638 139.728C86.5878 139.728 87.4918 139.92 88.2758 140.304C89.0758 140.688 89.6918 141.224 90.1238 141.912C90.5718 142.584 90.7958 143.368 90.7958 144.264V153H88.2038V150.648L88.7558 150.72C88.4518 151.248 88.0598 151.704 87.5798 152.088C87.1158 152.472 86.5798 152.768 85.9718 152.976C85.3798 153.184 84.7158 153.288 83.9798 153.288ZM100.135 153.288C98.8388 153.288 97.6868 152.992 96.6788 152.4C95.6868 151.792 94.8948 150.976 94.3028 149.952C93.7268 148.928 93.4388 147.768 93.4388 146.472C93.4388 145.192 93.7268 144.04 94.3028 143.016C94.8788 141.992 95.6708 141.192 96.6788 140.616C97.6868 140.024 98.8388 139.728 100.135 139.728C101.015 139.728 101.839 139.888 102.607 140.208C103.375 140.512 104.039 140.936 104.599 141.48C105.175 142.024 105.599 142.656 105.871 143.376L103.495 144.48C103.223 143.808 102.783 143.272 102.175 142.872C101.583 142.456 100.903 142.248 100.135 142.248C99.3988 142.248 98.7348 142.432 98.1428 142.8C97.5668 143.152 97.1108 143.656 96.7748 144.312C96.4388 144.952 96.2708 145.68 96.2708 146.496C96.2708 147.312 96.4388 148.048 96.7748 148.704C97.1108 149.344 97.5668 149.848 98.1428 150.216C98.7348 150.584 99.3988 150.768 100.135 150.768C100.919 150.768 101.599 150.568 102.175 150.168C102.767 149.752 103.207 149.2 103.495 148.512L105.871 149.64C105.615 150.328 105.199 150.952 104.623 151.512C104.063 152.056 103.399 152.488 102.631 152.808C101.863 153.128 101.031 153.288 100.135 153.288ZM114.138 153.144C112.778 153.144 111.722 152.76 110.97 151.992C110.218 151.224 109.842 150.144 109.842 148.752V142.464H107.562V140.016H107.922C108.53 140.016 109.002 139.84 109.338 139.488C109.674 139.136 109.842 138.656 109.842 138.048V137.04H112.554V140.016H115.506V142.464H112.554V148.632C112.554 149.08 112.626 149.464 112.77 149.784C112.914 150.088 113.146 150.328 113.466 150.504C113.786 150.664 114.202 150.744 114.714 150.744C114.842 150.744 114.986 150.736 115.146 150.72C115.306 150.704 115.458 150.688 115.602 150.672V153C115.378 153.032 115.13 153.064 114.858 153.096C114.586 153.128 114.346 153.144 114.138 153.144ZM118.248 153V140.016H120.96V153H118.248ZM118.248 138.24V135.12H120.96V138.24H118.248ZM127.899 153L122.811 140.016H125.763L129.675 150.6H128.595L132.507 140.016H135.483L130.371 153H127.899ZM143.188 153.288C141.892 153.288 140.74 152.992 139.732 152.4C138.74 151.792 137.964 150.976 137.404 149.952C136.844 148.912 136.564 147.752 136.564 146.472C136.564 145.16 136.844 144 137.404 142.992C137.98 141.984 138.748 141.192 139.708 140.616C140.668 140.024 141.756 139.728 142.972 139.728C143.948 139.728 144.82 139.896 145.588 140.232C146.356 140.568 147.004 141.032 147.532 141.624C148.06 142.2 148.46 142.864 148.732 143.616C149.02 144.368 149.164 145.168 149.164 146.016C149.164 146.224 149.156 146.44 149.14 146.664C149.124 146.888 149.092 147.096 149.044 147.288H138.7V145.128H147.508L146.212 146.112C146.372 145.328 146.316 144.632 146.044 144.024C145.788 143.4 145.388 142.912 144.844 142.56C144.316 142.192 143.692 142.008 142.972 142.008C142.252 142.008 141.612 142.192 141.052 142.56C140.492 142.912 140.06 143.424 139.756 144.096C139.452 144.752 139.332 145.552 139.396 146.496C139.316 147.376 139.436 148.144 139.756 148.8C140.092 149.456 140.556 149.968 141.148 150.336C141.756 150.704 142.444 150.888 143.212 150.888C143.996 150.888 144.66 150.712 145.204 150.36C145.764 150.008 146.204 149.552 146.524 148.992L148.732 150.072C148.476 150.68 148.076 151.232 147.532 151.728C147.004 152.208 146.364 152.592 145.612 152.88C144.876 153.152 144.068 153.288 143.188 153.288ZM156.27 153V135.12H159.102V150.48H166.83V153H156.27ZM175.039 153.288C173.743 153.288 172.591 152.992 171.583 152.4C170.591 151.792 169.815 150.976 169.255 149.952C168.695 148.912 168.415 147.752 168.415 146.472C168.415 145.16 168.695 144 169.255 142.992C169.831 141.984 170.599 141.192 171.559 140.616C172.519 140.024 173.607 139.728 174.823 139.728C175.799 139.728 176.671 139.896 177.439 140.232C178.207 140.568 178.855 141.032 179.383 141.624C179.911 142.2 180.311 142.864 180.583 143.616C180.871 144.368 181.015 145.168 181.015 146.016C181.015 146.224 181.007 146.44 180.991 146.664C180.975 146.888 180.943 147.096 180.895 147.288H170.551V145.128H179.359L178.063 146.112C178.223 145.328 178.167 144.632 177.895 144.024C177.639 143.4 177.239 142.912 176.695 142.56C176.167 142.192 175.543 142.008 174.823 142.008C174.103 142.008 173.463 142.192 172.903 142.56C172.343 142.912 171.911 143.424 171.607 144.096C171.303 144.752 171.183 145.552 171.247 146.496C171.167 147.376 171.287 148.144 171.607 148.8C171.943 149.456 172.407 149.968 172.999 150.336C173.607 150.704 174.295 150.888 175.063 150.888C175.847 150.888 176.511 150.712 177.055 150.36C177.615 150.008 178.055 149.552 178.375 148.992L180.583 150.072C180.327 150.68 179.927 151.232 179.383 151.728C178.855 152.208 178.215 152.592 177.463 152.88C176.727 153.152 175.919 153.288 175.039 153.288ZM187.433 153.288C186.553 153.288 185.777 153.136 185.105 152.832C184.449 152.512 183.937 152.08 183.569 151.536C183.201 150.976 183.017 150.32 183.017 149.568C183.017 148.864 183.169 148.232 183.473 147.672C183.793 147.112 184.281 146.64 184.937 146.256C185.593 145.872 186.417 145.6 187.409 145.44L191.921 144.696V146.832L187.937 147.528C187.217 147.656 186.689 147.888 186.353 148.224C186.017 148.544 185.849 148.96 185.849 149.472C185.849 149.968 186.033 150.376 186.401 150.696C186.785 151 187.273 151.152 187.865 151.152C188.601 151.152 189.241 150.992 189.785 150.672C190.345 150.352 190.777 149.928 191.081 149.4C191.385 148.856 191.537 148.256 191.537 147.6V144.264C191.537 143.624 191.297 143.104 190.817 142.704C190.353 142.288 189.729 142.08 188.945 142.08C188.225 142.08 187.593 142.272 187.049 142.656C186.521 143.024 186.129 143.504 185.873 144.096L183.617 142.968C183.857 142.328 184.249 141.768 184.793 141.288C185.337 140.792 185.969 140.408 186.689 140.136C187.425 139.864 188.201 139.728 189.017 139.728C190.041 139.728 190.945 139.92 191.729 140.304C192.529 140.688 193.145 141.224 193.577 141.912C194.025 142.584 194.249 143.368 194.249 144.264V153H191.657V150.648L192.209 150.72C191.905 151.248 191.513 151.704 191.033 152.088C190.569 152.472 190.033 152.768 189.425 152.976C188.833 153.184 188.169 153.288 187.433 153.288ZM197.42 153V140.016H200.012V142.632L199.772 142.248C200.06 141.4 200.524 140.792 201.164 140.424C201.804 140.04 202.572 139.848 203.468 139.848H204.26V142.32H203.132C202.236 142.32 201.508 142.6 200.948 143.16C200.404 143.704 200.132 144.488 200.132 145.512V153H197.42ZM206.115 153V140.016H208.707V142.56L208.395 142.224C208.715 141.408 209.227 140.792 209.931 140.376C210.635 139.944 211.451 139.728 212.379 139.728C213.339 139.728 214.187 139.936 214.923 140.352C215.659 140.768 216.235 141.344 216.651 142.08C217.067 142.816 217.275 143.664 217.275 144.624V153H214.587V145.344C214.587 144.688 214.467 144.136 214.227 143.688C213.987 143.224 213.643 142.872 213.195 142.632C212.763 142.376 212.267 142.248 211.707 142.248C211.147 142.248 210.643 142.376 210.195 142.632C209.763 142.872 209.427 143.224 209.187 143.688C208.947 144.152 208.827 144.704 208.827 145.344V153H206.115ZM220.178 153V140.016H222.89V153H220.178ZM220.178 138.24V135.12H222.89V138.24H220.178ZM226.061 153V140.016H228.653V142.56L228.341 142.224C228.661 141.408 229.173 140.792 229.877 140.376C230.581 139.944 231.397 139.728 232.325 139.728C233.285 139.728 234.133 139.936 234.869 140.352C235.605 140.768 236.181 141.344 236.597 142.08C237.013 142.816 237.221 143.664 237.221 144.624V153H234.533V145.344C234.533 144.688 234.413 144.136 234.173 143.688C233.933 143.224 233.589 142.872 233.141 142.632C232.709 142.376 232.213 142.248 231.653 142.248C231.093 142.248 230.589 142.376 230.141 142.632C229.709 142.872 229.373 143.224 229.133 143.688C228.893 144.152 228.773 144.704 228.773 145.344V153H226.061ZM246.387 158.28C245.443 158.28 244.571 158.128 243.771 157.824C242.971 157.52 242.283 157.096 241.707 156.552C241.131 156.024 240.699 155.4 240.411 154.68L242.907 153.648C243.131 154.256 243.539 154.76 244.131 155.16C244.739 155.56 245.483 155.76 246.363 155.76C247.051 155.76 247.667 155.624 248.211 155.352C248.755 155.096 249.187 154.712 249.507 154.2C249.827 153.704 249.987 153.104 249.987 152.4V149.472L250.467 150.024C250.019 150.856 249.395 151.488 248.595 151.92C247.811 152.352 246.923 152.568 245.931 152.568C244.731 152.568 243.651 152.288 242.691 151.728C241.731 151.168 240.971 150.4 240.411 149.424C239.867 148.448 239.595 147.352 239.595 146.136C239.595 144.904 239.867 143.808 240.411 142.848C240.971 141.888 241.723 141.128 242.667 140.568C243.611 140.008 244.691 139.728 245.907 139.728C246.899 139.728 247.779 139.944 248.547 140.376C249.331 140.792 249.971 141.4 250.467 142.2L250.107 142.872V140.016H252.675V152.4C252.675 153.52 252.403 154.52 251.859 155.4C251.331 156.296 250.595 157 249.651 157.512C248.707 158.024 247.619 158.28 246.387 158.28ZM246.243 150.048C246.963 150.048 247.603 149.88 248.163 149.544C248.723 149.192 249.163 148.728 249.483 148.152C249.819 147.56 249.987 146.896 249.987 146.16C249.987 145.424 249.819 144.76 249.483 144.168C249.147 143.576 248.699 143.112 248.139 142.776C247.579 142.424 246.947 142.248 246.243 142.248C245.507 142.248 244.851 142.424 244.275 142.776C243.699 143.112 243.243 143.576 242.907 144.168C242.587 144.744 242.427 145.408 242.427 146.16C242.427 146.88 242.587 147.536 242.907 148.128C243.243 148.72 243.699 149.192 244.275 149.544C244.851 149.88 245.507 150.048 246.243 150.048Z" fill="#1A2434"/>
<path opacity="0.7" d="M26.7614 207V192.455H35.5398V194.017H28.5227V198.932H35.0852V200.494H28.5227V205.438H35.6534V207H26.7614ZM38.8872 207V196.091H40.5065V197.795H40.6486C40.8759 197.213 41.2428 196.761 41.7494 196.439C42.2561 196.112 42.8645 195.949 43.5747 195.949C44.2944 195.949 44.8934 196.112 45.3716 196.439C45.8545 196.761 46.231 197.213 46.5009 197.795H46.6145C46.8938 197.232 47.3129 196.785 47.8716 196.453C48.4303 196.117 49.1003 195.949 49.8815 195.949C50.8569 195.949 51.6547 196.254 52.275 196.865C52.8953 197.471 53.2054 198.416 53.2054 199.699V207H51.5293V199.699C51.5293 198.894 51.3091 198.319 50.8687 197.973C50.4284 197.627 49.9099 197.455 49.3134 197.455C48.5463 197.455 47.9521 197.687 47.5307 198.151C47.1093 198.61 46.8986 199.192 46.8986 199.898V207H45.194V199.528C45.194 198.908 44.9928 198.409 44.5903 198.03C44.1879 197.646 43.6694 197.455 43.0349 197.455C42.5993 197.455 42.1921 197.571 41.8134 197.803C41.4393 198.035 41.1363 198.357 40.9043 198.768C40.677 199.176 40.5634 199.647 40.5634 200.182V207H38.8872ZM56.67 211.091V196.091H58.2893V197.824H58.4882C58.6113 197.634 58.7818 197.393 58.9996 197.099C59.2221 196.801 59.5393 196.536 59.9513 196.304C60.3679 196.067 60.9314 195.949 61.6416 195.949C62.5602 195.949 63.3698 196.179 64.0706 196.638C64.7714 197.097 65.3182 197.748 65.7112 198.591C66.1042 199.434 66.3007 200.428 66.3007 201.574C66.3007 202.729 66.1042 203.731 65.7112 204.578C65.3182 205.421 64.7737 206.074 64.0777 206.538C63.3817 206.998 62.5791 207.227 61.67 207.227C60.9693 207.227 60.4082 207.111 59.9868 206.879C59.5654 206.643 59.2411 206.375 59.0138 206.077C58.7865 205.774 58.6113 205.523 58.4882 205.324H58.3462V211.091H56.67ZM58.3178 201.545C58.3178 202.369 58.4385 203.096 58.68 203.726C58.9214 204.351 59.2742 204.841 59.7382 205.196C60.2022 205.546 60.7704 205.722 61.4428 205.722C62.1435 205.722 62.7283 205.537 63.197 205.168C63.6705 204.794 64.0256 204.292 64.2624 203.662C64.5038 203.027 64.6246 202.322 64.6246 201.545C64.6246 200.778 64.5062 200.087 64.2695 199.472C64.0375 198.851 63.6847 198.361 63.2112 198.001C62.7425 197.637 62.153 197.455 61.4428 197.455C60.7609 197.455 60.188 197.627 59.724 197.973C59.26 198.314 58.9096 198.792 58.6729 199.408C58.4361 200.018 58.3178 200.731 58.3178 201.545ZM73.6893 207.227C72.7045 207.227 71.8404 206.993 71.097 206.524C70.3584 206.055 69.7807 205.4 69.3641 204.557C68.9521 203.714 68.7462 202.729 68.7462 201.602C68.7462 200.466 68.9521 199.474 69.3641 198.626C69.7807 197.779 70.3584 197.121 71.097 196.652C71.8404 196.183 72.7045 195.949 73.6893 195.949C74.6742 195.949 75.5359 196.183 76.2746 196.652C77.0179 197.121 77.5956 197.779 78.0075 198.626C78.4242 199.474 78.6325 200.466 78.6325 201.602C78.6325 202.729 78.4242 203.714 78.0075 204.557C77.5956 205.4 77.0179 206.055 76.2746 206.524C75.5359 206.993 74.6742 207.227 73.6893 207.227ZM73.6893 205.722C74.4375 205.722 75.053 205.53 75.5359 205.146C76.0189 204.763 76.3764 204.259 76.6084 203.634C76.8404 203.009 76.9564 202.331 76.9564 201.602C76.9564 200.873 76.8404 200.194 76.6084 199.564C76.3764 198.934 76.0189 198.425 75.5359 198.037C75.053 197.649 74.4375 197.455 73.6893 197.455C72.9412 197.455 72.3257 197.649 71.8428 198.037C71.3598 198.425 71.0023 198.934 70.7703 199.564C70.5383 200.194 70.4223 200.873 70.4223 201.602C70.4223 202.331 70.5383 203.009 70.7703 203.634C71.0023 204.259 71.3598 204.763 71.8428 205.146C72.3257 205.53 72.9412 205.722 73.6893 205.722ZM83.6916 207L80.3678 196.091H82.1291L84.4871 204.443H84.6007L86.9303 196.091H88.72L91.0212 204.415H91.1348L93.4928 196.091H95.2541L91.9303 207H90.2825L87.8962 198.619H87.7257L85.3393 207H83.6916ZM102.073 207.227C101.022 207.227 100.115 206.995 99.3526 206.531C98.5951 206.062 98.0103 205.409 97.5984 204.571C97.1912 203.728 96.9876 202.748 96.9876 201.631C96.9876 200.513 97.1912 199.528 97.5984 198.676C98.0103 197.819 98.5832 197.152 99.3171 196.673C100.056 196.19 100.917 195.949 101.902 195.949C102.471 195.949 103.032 196.044 103.586 196.233C104.14 196.422 104.644 196.73 105.098 197.156C105.553 197.578 105.915 198.136 106.185 198.832C106.455 199.528 106.59 200.385 106.59 201.403V202.114H98.1808V200.665H104.885C104.885 200.049 104.762 199.5 104.516 199.017C104.275 198.534 103.929 198.153 103.479 197.874C103.034 197.594 102.508 197.455 101.902 197.455C101.235 197.455 100.657 197.62 100.169 197.952C99.6864 198.278 99.3147 198.705 99.0543 199.23C98.7939 199.756 98.6637 200.319 98.6637 200.92V201.886C98.6637 202.71 98.8058 203.409 99.0898 203.982C99.3787 204.55 99.7788 204.983 100.29 205.281C100.801 205.575 101.396 205.722 102.073 205.722C102.513 205.722 102.911 205.66 103.266 205.537C103.626 205.409 103.936 205.22 104.196 204.969C104.457 204.713 104.658 204.396 104.8 204.017L106.419 204.472C106.249 205.021 105.962 205.504 105.56 205.92C105.158 206.332 104.66 206.654 104.069 206.886C103.477 207.114 102.811 207.227 102.073 207.227ZM109.54 207V196.091H111.159V197.739H111.273C111.471 197.199 111.831 196.761 112.352 196.425C112.873 196.089 113.46 195.92 114.113 195.92C114.237 195.92 114.39 195.923 114.575 195.928C114.76 195.932 114.899 195.939 114.994 195.949V197.653C114.937 197.639 114.807 197.618 114.603 197.589C114.405 197.556 114.194 197.54 113.971 197.54C113.441 197.54 112.968 197.651 112.551 197.874C112.139 198.091 111.812 198.394 111.571 198.783C111.334 199.166 111.216 199.604 111.216 200.097V207H109.54ZM124.486 211.091C124.201 211.091 123.948 211.067 123.726 211.02C123.503 210.977 123.349 210.935 123.264 210.892L123.69 209.415C124.097 209.519 124.457 209.557 124.77 209.528C125.082 209.5 125.359 209.36 125.601 209.109C125.847 208.863 126.072 208.463 126.275 207.909L126.588 207.057L122.554 196.091H124.372L127.383 204.784H127.497L130.508 196.091H132.326L127.696 208.591C127.487 209.154 127.229 209.621 126.922 209.99C126.614 210.364 126.256 210.641 125.849 210.821C125.447 211.001 124.992 211.091 124.486 211.091ZM138.98 207.227C137.995 207.227 137.131 206.993 136.388 206.524C135.649 206.055 135.071 205.4 134.655 204.557C134.243 203.714 134.037 202.729 134.037 201.602C134.037 200.466 134.243 199.474 134.655 198.626C135.071 197.779 135.649 197.121 136.388 196.652C137.131 196.183 137.995 195.949 138.98 195.949C139.965 195.949 140.827 196.183 141.565 196.652C142.309 197.121 142.886 197.779 143.298 198.626C143.715 199.474 143.923 200.466 143.923 201.602C143.923 202.729 143.715 203.714 143.298 204.557C142.886 205.4 142.309 206.055 141.565 206.524C140.827 206.993 139.965 207.227 138.98 207.227ZM138.98 205.722C139.728 205.722 140.344 205.53 140.827 205.146C141.31 204.763 141.667 204.259 141.899 203.634C142.131 203.009 142.247 202.331 142.247 201.602C142.247 200.873 142.131 200.194 141.899 199.564C141.667 198.934 141.31 198.425 140.827 198.037C140.344 197.649 139.728 197.455 138.98 197.455C138.232 197.455 137.616 197.649 137.133 198.037C136.65 198.425 136.293 198.934 136.061 199.564C135.829 200.194 135.713 200.873 135.713 201.602C135.713 202.331 135.829 203.009 136.061 203.634C136.293 204.259 136.65 204.763 137.133 205.146C137.616 205.53 138.232 205.722 138.98 205.722ZM153.757 202.54V196.091H155.433V207H153.757V205.153H153.643C153.387 205.707 152.99 206.179 152.45 206.567C151.91 206.95 151.228 207.142 150.404 207.142C149.723 207.142 149.117 206.993 148.586 206.695C148.056 206.392 147.639 205.937 147.336 205.331C147.033 204.72 146.882 203.951 146.882 203.023V196.091H148.558V202.909C148.558 203.705 148.78 204.339 149.225 204.812C149.675 205.286 150.248 205.523 150.944 205.523C151.361 205.523 151.785 205.416 152.216 205.203C152.651 204.99 153.016 204.663 153.309 204.223C153.608 203.783 153.757 203.222 153.757 202.54ZM158.903 207V196.091H160.522V197.739H160.636C160.835 197.199 161.195 196.761 161.715 196.425C162.236 196.089 162.823 195.92 163.477 195.92C163.6 195.92 163.754 195.923 163.938 195.928C164.123 195.932 164.263 195.939 164.357 195.949V197.653C164.301 197.639 164.17 197.618 163.967 197.589C163.768 197.556 163.557 197.54 163.335 197.54C162.804 197.54 162.331 197.651 161.914 197.874C161.502 198.091 161.176 198.394 160.934 198.783C160.697 199.166 160.579 199.604 160.579 200.097V207H158.903ZM174.472 198.534L172.966 198.96C172.871 198.709 172.731 198.465 172.547 198.229C172.367 197.987 172.121 197.788 171.808 197.632C171.496 197.476 171.096 197.398 170.608 197.398C169.94 197.398 169.384 197.552 168.939 197.859C168.499 198.162 168.278 198.548 168.278 199.017C168.278 199.434 168.43 199.763 168.733 200.004C169.036 200.246 169.509 200.447 170.153 200.608L171.773 201.006C172.748 201.242 173.475 201.605 173.953 202.092C174.431 202.575 174.67 203.198 174.67 203.96C174.67 204.585 174.49 205.144 174.131 205.636C173.776 206.129 173.278 206.517 172.639 206.801C172 207.085 171.257 207.227 170.409 207.227C169.296 207.227 168.375 206.986 167.646 206.503C166.917 206.02 166.455 205.314 166.261 204.386L167.852 203.989C168.004 204.576 168.29 205.016 168.712 205.31C169.138 205.603 169.694 205.75 170.381 205.75C171.162 205.75 171.782 205.584 172.241 205.253C172.705 204.917 172.937 204.514 172.937 204.045C172.937 203.667 172.805 203.349 172.54 203.094C172.275 202.833 171.867 202.639 171.318 202.511L169.5 202.085C168.501 201.848 167.767 201.482 167.298 200.984C166.834 200.482 166.602 199.855 166.602 199.102C166.602 198.487 166.775 197.942 167.121 197.469C167.471 196.995 167.947 196.624 168.548 196.354C169.154 196.084 169.841 195.949 170.608 195.949C171.687 195.949 172.535 196.186 173.151 196.659C173.771 197.133 174.211 197.758 174.472 198.534ZM182.167 207.227C181.116 207.227 180.209 206.995 179.447 206.531C178.69 206.062 178.105 205.409 177.693 204.571C177.286 203.728 177.082 202.748 177.082 201.631C177.082 200.513 177.286 199.528 177.693 198.676C178.105 197.819 178.678 197.152 179.412 196.673C180.15 196.19 181.012 195.949 181.997 195.949C182.565 195.949 183.126 196.044 183.68 196.233C184.234 196.422 184.738 196.73 185.193 197.156C185.647 197.578 186.01 198.136 186.28 198.832C186.549 199.528 186.684 200.385 186.684 201.403V202.114H178.275V200.665H184.98C184.98 200.049 184.857 199.5 184.611 199.017C184.369 198.534 184.023 198.153 183.574 197.874C183.129 197.594 182.603 197.455 181.997 197.455C181.329 197.455 180.752 197.62 180.264 197.952C179.781 198.278 179.409 198.705 179.149 199.23C178.888 199.756 178.758 200.319 178.758 200.92V201.886C178.758 202.71 178.9 203.409 179.184 203.982C179.473 204.55 179.873 204.983 180.385 205.281C180.896 205.575 181.49 205.722 182.167 205.722C182.608 205.722 183.005 205.66 183.361 205.537C183.72 205.409 184.03 205.22 184.291 204.969C184.551 204.713 184.753 204.396 184.895 204.017L186.514 204.472C186.343 205.021 186.057 205.504 185.655 205.92C185.252 206.332 184.755 206.654 184.163 206.886C183.571 207.114 182.906 207.227 182.167 207.227ZM191.31 192.455V207H189.634V192.455H191.31ZM199.638 196.091V197.511H193.757V196.091H199.638ZM195.519 207V194.585C195.519 193.96 195.666 193.439 195.959 193.023C196.253 192.606 196.634 192.294 197.103 192.085C197.571 191.877 198.066 191.773 198.587 191.773C198.999 191.773 199.335 191.806 199.596 191.872C199.856 191.938 200.05 192 200.178 192.057L199.695 193.506C199.61 193.477 199.491 193.442 199.34 193.399C199.193 193.357 198.999 193.335 198.757 193.335C198.203 193.335 197.803 193.475 197.557 193.754C197.316 194.034 197.195 194.443 197.195 194.983V207H195.519ZM210.884 207L207.56 196.091H209.321L211.679 204.443H211.793L214.122 196.091H215.912L218.213 204.415H218.327L220.685 196.091H222.446L219.122 207H217.475L215.088 198.619H214.918L212.532 207H210.884ZM225.062 207V196.091H226.738V207H225.062ZM225.914 194.273C225.588 194.273 225.306 194.161 225.069 193.939C224.837 193.716 224.721 193.449 224.721 193.136C224.721 192.824 224.837 192.556 225.069 192.334C225.306 192.111 225.588 192 225.914 192C226.241 192 226.521 192.111 226.753 192.334C226.989 192.556 227.108 192.824 227.108 193.136C227.108 193.449 226.989 193.716 226.753 193.939C226.521 194.161 226.241 194.273 225.914 194.273ZM234.953 196.091V197.511H229.299V196.091H234.953ZM230.947 193.477H232.623V203.875C232.623 204.348 232.692 204.704 232.829 204.94C232.971 205.172 233.151 205.329 233.369 205.409C233.591 205.485 233.826 205.523 234.072 205.523C234.257 205.523 234.408 205.513 234.526 205.494C234.645 205.471 234.74 205.452 234.811 205.438L235.151 206.943C235.038 206.986 234.879 207.028 234.676 207.071C234.472 207.118 234.214 207.142 233.901 207.142C233.428 207.142 232.964 207.04 232.509 206.837C232.06 206.633 231.686 206.323 231.387 205.906C231.094 205.49 230.947 204.964 230.947 204.33V193.477ZM239.784 200.438V207H238.108V192.455H239.784V197.795H239.926C240.182 197.232 240.566 196.785 241.077 196.453C241.593 196.117 242.28 195.949 243.137 195.949C243.88 195.949 244.531 196.098 245.09 196.396C245.649 196.69 246.082 197.142 246.39 197.753C246.702 198.359 246.858 199.131 246.858 200.068V207H245.182V200.182C245.182 199.315 244.957 198.645 244.507 198.172C244.062 197.694 243.444 197.455 242.654 197.455C242.105 197.455 241.612 197.571 241.176 197.803C240.746 198.035 240.405 198.373 240.154 198.818C239.908 199.263 239.784 199.803 239.784 200.438ZM31.2784 232.091V233.511H25.625V232.091H31.2784ZM27.2727 229.477H28.9489V239.875C28.9489 240.348 29.0175 240.704 29.1548 240.94C29.2969 241.172 29.4768 241.329 29.6946 241.409C29.9171 241.485 30.1515 241.523 30.3977 241.523C30.5824 241.523 30.7339 241.513 30.8523 241.494C30.9706 241.471 31.0653 241.452 31.1364 241.438L31.4773 242.943C31.3636 242.986 31.205 243.028 31.0014 243.071C30.7978 243.118 30.5398 243.142 30.2273 243.142C29.7538 243.142 29.2898 243.04 28.8352 242.837C28.3854 242.633 28.0114 242.323 27.7131 241.906C27.4195 241.49 27.2727 240.964 27.2727 240.33V229.477ZM36.1102 236.438V243H34.4341V228.455H36.1102V233.795H36.2523C36.508 233.232 36.8915 232.785 37.4028 232.453C37.9189 232.117 38.6055 231.949 39.4625 231.949C40.2059 231.949 40.8569 232.098 41.4156 232.396C41.9743 232.69 42.4076 233.142 42.7153 233.753C43.0278 234.359 43.1841 235.131 43.1841 236.068V243H41.508V236.182C41.508 235.315 41.283 234.645 40.8332 234.172C40.3882 233.694 39.7703 233.455 38.9795 233.455C38.4303 233.455 37.9379 233.571 37.5023 233.803C37.0714 234.035 36.7305 234.373 36.4795 234.818C36.2333 235.263 36.1102 235.803 36.1102 236.438ZM51.2244 243.227C50.1732 243.227 49.2665 242.995 48.5042 242.531C47.7466 242.062 47.1619 241.409 46.7499 240.571C46.3427 239.728 46.1391 238.748 46.1391 237.631C46.1391 236.513 46.3427 235.528 46.7499 234.676C47.1619 233.819 47.7348 233.152 48.4687 232.673C49.2073 232.19 50.0691 231.949 51.0539 231.949C51.6221 231.949 52.1832 232.044 52.7371 232.233C53.2911 232.422 53.7954 232.73 54.2499 233.156C54.7045 233.578 55.0667 234.136 55.3366 234.832C55.6065 235.528 55.7414 236.385 55.7414 237.403V238.114H47.3323V236.665H54.0369C54.0369 236.049 53.9138 235.5 53.6675 235.017C53.4261 234.534 53.0804 234.153 52.6306 233.874C52.1855 233.594 51.66 233.455 51.0539 233.455C50.3863 233.455 49.8086 233.62 49.321 233.952C48.838 234.278 48.4663 234.705 48.2059 235.23C47.9455 235.756 47.8153 236.319 47.8153 236.92V237.886C47.8153 238.71 47.9573 239.409 48.2414 239.982C48.5302 240.55 48.9303 240.983 49.4417 241.281C49.9531 241.575 50.5473 241.722 51.2244 241.722C51.6647 241.722 52.0624 241.66 52.4175 241.537C52.7774 241.409 53.0875 241.22 53.3479 240.969C53.6084 240.713 53.8096 240.396 53.9516 240.017L55.571 240.472C55.4005 241.021 55.114 241.504 54.7116 241.92C54.3091 242.332 53.812 242.654 53.2201 242.886C52.6282 243.114 51.963 243.227 51.2244 243.227ZM66.2786 239.023L66.2502 236.949H66.5911L71.3638 232.091H73.4377L68.3525 237.233H68.2104L66.2786 239.023ZM64.7161 243V228.455H66.3923V243H64.7161ZM71.6479 243L67.3866 237.602L68.5798 236.438L73.7786 243H71.6479ZM77.6712 236.438V243H75.995V232.091H77.6143V233.795H77.7564C78.0121 233.241 78.4003 232.796 78.9212 232.46C79.442 232.119 80.1143 231.949 80.9382 231.949C81.6768 231.949 82.3232 232.1 82.8771 232.403C83.4311 232.702 83.862 233.156 84.1697 233.767C84.4775 234.373 84.6314 235.14 84.6314 236.068V243H82.9553V236.182C82.9553 235.325 82.7327 234.657 82.2876 234.179C81.8426 233.696 81.2318 233.455 80.4553 233.455C79.9202 233.455 79.442 233.571 79.0206 233.803C78.6039 234.035 78.2749 234.373 78.0334 234.818C77.7919 235.263 77.6712 235.803 77.6712 236.438ZM92.5261 243.227C91.5412 243.227 90.6771 242.993 89.9337 242.524C89.1951 242.055 88.6174 241.4 88.2008 240.557C87.7889 239.714 87.5829 238.729 87.5829 237.602C87.5829 236.466 87.7889 235.474 88.2008 234.626C88.6174 233.779 89.1951 233.121 89.9337 232.652C90.6771 232.183 91.5412 231.949 92.5261 231.949C93.5109 231.949 94.3727 232.183 95.1113 232.652C95.8547 233.121 96.4323 233.779 96.8442 234.626C97.2609 235.474 97.4692 236.466 97.4692 237.602C97.4692 238.729 97.2609 239.714 96.8442 240.557C96.4323 241.4 95.8547 242.055 95.1113 242.524C94.3727 242.993 93.5109 243.227 92.5261 243.227ZM92.5261 241.722C93.2742 241.722 93.8897 241.53 94.3727 241.146C94.8556 240.763 95.2131 240.259 95.4451 239.634C95.6771 239.009 95.7931 238.331 95.7931 237.602C95.7931 236.873 95.6771 236.194 95.4451 235.564C95.2131 234.934 94.8556 234.425 94.3727 234.037C93.8897 233.649 93.2742 233.455 92.5261 233.455C91.778 233.455 91.1624 233.649 90.6795 234.037C90.1965 234.425 89.839 234.934 89.607 235.564C89.375 236.194 89.259 236.873 89.259 237.602C89.259 238.331 89.375 239.009 89.607 239.634C89.839 240.259 90.1965 240.763 90.6795 241.146C91.1624 241.53 91.778 241.722 92.5261 241.722ZM102.528 243L99.2045 232.091H100.966L103.324 240.443H103.437L105.767 232.091H107.557L109.858 240.415H109.972L112.329 232.091H114.091L110.767 243H109.119L106.733 234.619H106.562L104.176 243H102.528ZM118.383 228.455V243H116.707V228.455H118.383ZM126.427 243.227C125.376 243.227 124.469 242.995 123.707 242.531C122.949 242.062 122.364 241.409 121.952 240.571C121.545 239.728 121.341 238.748 121.341 237.631C121.341 236.513 121.545 235.528 121.952 234.676C122.364 233.819 122.937 233.152 123.671 232.673C124.41 232.19 125.271 231.949 126.256 231.949C126.824 231.949 127.386 232.044 127.939 232.233C128.493 232.422 128.998 232.73 129.452 233.156C129.907 233.578 130.269 234.136 130.539 234.832C130.809 235.528 130.944 236.385 130.944 237.403V238.114H122.535V236.665H129.239C129.239 236.049 129.116 235.5 128.87 235.017C128.628 234.534 128.283 234.153 127.833 233.874C127.388 233.594 126.862 233.455 126.256 233.455C125.589 233.455 125.011 233.62 124.523 233.952C124.04 234.278 123.669 234.705 123.408 235.23C123.148 235.756 123.018 236.319 123.018 236.92V237.886C123.018 238.71 123.16 239.409 123.444 239.982C123.733 240.55 124.133 240.983 124.644 241.281C125.155 241.575 125.75 241.722 126.427 241.722C126.867 241.722 127.265 241.66 127.62 241.537C127.98 241.409 128.29 241.22 128.55 240.969C128.811 240.713 129.012 240.396 129.154 240.017L130.773 240.472C130.603 241.021 130.316 241.504 129.914 241.92C129.511 242.332 129.014 242.654 128.422 242.886C127.831 243.114 127.165 243.227 126.427 243.227ZM138.013 243.227C137.104 243.227 136.301 242.998 135.605 242.538C134.909 242.074 134.365 241.421 133.972 240.578C133.579 239.731 133.382 238.729 133.382 237.574C133.382 236.428 133.579 235.434 133.972 234.591C134.365 233.748 134.911 233.097 135.612 232.638C136.313 232.179 137.123 231.949 138.041 231.949C138.751 231.949 139.313 232.067 139.724 232.304C140.141 232.536 140.458 232.801 140.676 233.099C140.899 233.393 141.071 233.634 141.195 233.824H141.337V228.455H143.013V243H141.393V241.324H141.195C141.071 241.523 140.896 241.774 140.669 242.077C140.442 242.375 140.117 242.643 139.696 242.879C139.275 243.111 138.714 243.227 138.013 243.227ZM138.24 241.722C138.912 241.722 139.481 241.546 139.945 241.196C140.409 240.841 140.761 240.351 141.003 239.726C141.244 239.096 141.365 238.369 141.365 237.545C141.365 236.731 141.247 236.018 141.01 235.408C140.773 234.792 140.423 234.314 139.959 233.973C139.495 233.627 138.922 233.455 138.24 233.455C137.53 233.455 136.938 233.637 136.464 234.001C135.996 234.361 135.643 234.851 135.406 235.472C135.174 236.087 135.058 236.778 135.058 237.545C135.058 238.322 135.177 239.027 135.413 239.662C135.655 240.292 136.01 240.794 136.479 241.168C136.952 241.537 137.539 241.722 138.24 241.722ZM151.119 247.318C150.309 247.318 149.613 247.214 149.031 247.006C148.448 246.802 147.963 246.532 147.575 246.196C147.191 245.865 146.886 245.509 146.659 245.131L147.994 244.193C148.145 244.392 148.337 244.619 148.569 244.875C148.801 245.135 149.118 245.36 149.521 245.55C149.928 245.744 150.461 245.841 151.119 245.841C151.999 245.841 152.726 245.628 153.299 245.202C153.872 244.776 154.159 244.108 154.159 243.199V240.983H154.016C153.893 241.182 153.718 241.428 153.491 241.722C153.268 242.01 152.946 242.268 152.525 242.496C152.108 242.718 151.545 242.83 150.835 242.83C149.954 242.83 149.163 242.621 148.463 242.205C147.766 241.788 147.215 241.182 146.808 240.386C146.405 239.591 146.204 238.625 146.204 237.489C146.204 236.371 146.4 235.398 146.793 234.57C147.186 233.736 147.733 233.092 148.434 232.638C149.135 232.179 149.945 231.949 150.863 231.949C151.573 231.949 152.137 232.067 152.553 232.304C152.975 232.536 153.297 232.801 153.519 233.099C153.747 233.393 153.922 233.634 154.045 233.824H154.215V232.091H155.835V243.312C155.835 244.25 155.622 245.012 155.195 245.599C154.774 246.191 154.206 246.625 153.491 246.899C152.781 247.179 151.99 247.318 151.119 247.318ZM151.062 241.324C151.734 241.324 152.302 241.17 152.766 240.862C153.23 240.554 153.583 240.112 153.825 239.534C154.066 238.956 154.187 238.265 154.187 237.46C154.187 236.674 154.069 235.981 153.832 235.379C153.595 234.778 153.245 234.307 152.781 233.966C152.317 233.625 151.744 233.455 151.062 233.455C150.352 233.455 149.76 233.634 149.286 233.994C148.818 234.354 148.465 234.837 148.228 235.443C147.996 236.049 147.88 236.722 147.88 237.46C147.88 238.218 147.998 238.888 148.235 239.47C148.477 240.048 148.832 240.502 149.301 240.834C149.774 241.161 150.361 241.324 151.062 241.324ZM163.877 243.227C162.826 243.227 161.919 242.995 161.157 242.531C160.399 242.062 159.814 241.409 159.402 240.571C158.995 239.728 158.791 238.748 158.791 237.631C158.791 236.513 158.995 235.528 159.402 234.676C159.814 233.819 160.387 233.152 161.121 232.673C161.86 232.19 162.721 231.949 163.706 231.949C164.274 231.949 164.836 232.044 165.389 232.233C165.943 232.422 166.448 232.73 166.902 233.156C167.357 233.578 167.719 234.136 167.989 234.832C168.259 235.528 168.394 236.385 168.394 237.403V238.114H159.985V236.665H166.689C166.689 236.049 166.566 235.5 166.32 235.017C166.078 234.534 165.733 234.153 165.283 233.874C164.838 233.594 164.312 233.455 163.706 233.455C163.039 233.455 162.461 233.62 161.973 233.952C161.49 234.278 161.119 234.705 160.858 235.23C160.598 235.756 160.468 236.319 160.468 236.92V237.886C160.468 238.71 160.61 239.409 160.894 239.982C161.183 240.55 161.583 240.983 162.094 241.281C162.605 241.575 163.2 241.722 163.877 241.722C164.317 241.722 164.715 241.66 165.07 241.537C165.43 241.409 165.74 241.22 166 240.969C166.261 240.713 166.462 240.396 166.604 240.017L168.223 240.472C168.053 241.021 167.766 241.504 167.364 241.92C166.961 242.332 166.464 242.654 165.872 242.886C165.281 243.114 164.615 243.227 163.877 243.227ZM180.579 243.256C179.887 243.256 179.26 243.125 178.697 242.865C178.133 242.6 177.686 242.219 177.354 241.722C177.023 241.22 176.857 240.614 176.857 239.903C176.857 239.278 176.98 238.772 177.226 238.384C177.473 237.991 177.802 237.683 178.214 237.46C178.626 237.238 179.08 237.072 179.577 236.963C180.079 236.849 180.583 236.759 181.09 236.693C181.753 236.608 182.29 236.544 182.702 236.501C183.119 236.454 183.422 236.376 183.611 236.267C183.805 236.158 183.903 235.969 183.903 235.699V235.642C183.903 234.941 183.711 234.397 183.327 234.009C182.948 233.62 182.373 233.426 181.601 233.426C180.801 233.426 180.174 233.601 179.719 233.952C179.265 234.302 178.945 234.676 178.761 235.074L177.17 234.506C177.454 233.843 177.832 233.327 178.306 232.957C178.784 232.583 179.305 232.323 179.868 232.176C180.437 232.025 180.995 231.949 181.545 231.949C181.895 231.949 182.297 231.991 182.752 232.077C183.211 232.157 183.654 232.325 184.08 232.581C184.511 232.837 184.868 233.223 185.153 233.739C185.437 234.255 185.579 234.946 185.579 235.812V243H183.903V241.523H183.817C183.704 241.759 183.514 242.013 183.249 242.283C182.984 242.553 182.631 242.782 182.191 242.972C181.751 243.161 181.213 243.256 180.579 243.256ZM180.834 241.75C181.497 241.75 182.056 241.62 182.511 241.359C182.97 241.099 183.315 240.763 183.547 240.351C183.784 239.939 183.903 239.506 183.903 239.051V237.517C183.832 237.602 183.675 237.68 183.434 237.751C183.197 237.818 182.922 237.877 182.61 237.929C182.302 237.976 182.002 238.019 181.708 238.057C181.419 238.09 181.185 238.118 181.005 238.142C180.569 238.199 180.162 238.291 179.783 238.419C179.409 238.542 179.106 238.729 178.874 238.98C178.647 239.226 178.533 239.562 178.533 239.989C178.533 240.571 178.749 241.011 179.18 241.31C179.615 241.603 180.167 241.75 180.834 241.75ZM190.714 236.438V243H189.038V232.091H190.657V233.795H190.799C191.055 233.241 191.443 232.796 191.964 232.46C192.485 232.119 193.157 231.949 193.981 231.949C194.72 231.949 195.366 232.1 195.92 232.403C196.474 232.702 196.905 233.156 197.213 233.767C197.52 234.373 197.674 235.14 197.674 236.068V243H195.998V236.182C195.998 235.325 195.776 234.657 195.331 234.179C194.886 233.696 194.275 233.455 193.498 233.455C192.963 233.455 192.485 233.571 192.064 233.803C191.647 234.035 191.318 234.373 191.076 234.818C190.835 235.263 190.714 235.803 190.714 236.438ZM205.257 243.227C204.347 243.227 203.545 242.998 202.849 242.538C202.153 242.074 201.608 241.421 201.215 240.578C200.822 239.731 200.626 238.729 200.626 237.574C200.626 236.428 200.822 235.434 201.215 234.591C201.608 233.748 202.155 233.097 202.856 232.638C203.557 232.179 204.366 231.949 205.285 231.949C205.995 231.949 206.556 232.067 206.968 232.304C207.385 232.536 207.702 232.801 207.92 233.099C208.142 233.393 208.315 233.634 208.438 233.824H208.58V228.455H210.257V243H208.637V241.324H208.438C208.315 241.523 208.14 241.774 207.913 242.077C207.686 242.375 207.361 242.643 206.94 242.879C206.518 243.111 205.957 243.227 205.257 243.227ZM205.484 241.722C206.156 241.722 206.724 241.546 207.188 241.196C207.652 240.841 208.005 240.351 208.247 239.726C208.488 239.096 208.609 238.369 208.609 237.545C208.609 236.731 208.49 236.018 208.254 235.408C208.017 234.792 207.667 234.314 207.203 233.973C206.739 233.627 206.166 233.455 205.484 233.455C204.774 233.455 204.182 233.637 203.708 234.001C203.239 234.361 202.887 234.851 202.65 235.472C202.418 236.087 202.302 236.778 202.302 237.545C202.302 238.322 202.42 239.027 202.657 239.662C202.899 240.292 203.254 240.794 203.722 241.168C204.196 241.537 204.783 241.722 205.484 241.722ZM227.711 234.534L226.206 234.96C226.111 234.709 225.971 234.465 225.787 234.229C225.607 233.987 225.361 233.788 225.048 233.632C224.736 233.476 224.335 233.398 223.848 233.398C223.18 233.398 222.624 233.552 222.179 233.859C221.738 234.162 221.518 234.548 221.518 235.017C221.518 235.434 221.67 235.763 221.973 236.004C222.276 236.246 222.749 236.447 223.393 236.608L225.012 237.006C225.988 237.242 226.715 237.605 227.193 238.092C227.671 238.575 227.91 239.198 227.91 239.96C227.91 240.585 227.73 241.144 227.37 241.636C227.015 242.129 226.518 242.517 225.879 242.801C225.24 243.085 224.496 243.227 223.649 243.227C222.536 243.227 221.615 242.986 220.886 242.503C220.157 242.02 219.695 241.314 219.501 240.386L221.092 239.989C221.244 240.576 221.53 241.016 221.951 241.31C222.378 241.603 222.934 241.75 223.62 241.75C224.402 241.75 225.022 241.584 225.481 241.253C225.945 240.917 226.177 240.514 226.177 240.045C226.177 239.667 226.045 239.349 225.78 239.094C225.514 238.833 225.107 238.639 224.558 238.511L222.74 238.085C221.741 237.848 221.007 237.482 220.538 236.984C220.074 236.482 219.842 235.855 219.842 235.102C219.842 234.487 220.015 233.942 220.361 233.469C220.711 232.995 221.187 232.624 221.788 232.354C222.394 232.084 223.081 231.949 223.848 231.949C224.927 231.949 225.775 232.186 226.39 232.659C227.011 233.133 227.451 233.758 227.711 234.534ZM232.396 239.023L232.367 236.949H232.708L237.481 232.091H239.555L234.47 237.233H234.328L232.396 239.023ZM230.833 243V228.455H232.509V243H230.833ZM237.765 243L233.504 237.602L234.697 236.438L239.896 243H237.765ZM242.112 243V232.091H243.788V243H242.112ZM242.964 230.273C242.638 230.273 242.356 230.161 242.119 229.939C241.887 229.716 241.771 229.449 241.771 229.136C241.771 228.824 241.887 228.556 242.119 228.334C242.356 228.111 242.638 228 242.964 228C243.291 228 243.571 228.111 243.803 228.334C244.039 228.556 244.158 228.824 244.158 229.136C244.158 229.449 244.039 229.716 243.803 229.939C243.571 230.161 243.291 230.273 242.964 230.273ZM248.934 228.455V243H247.258V228.455H248.934ZM254.081 228.455V243H252.404V228.455H254.081ZM265.278 234.534L263.772 234.96C263.677 234.709 263.538 234.465 263.353 234.229C263.173 233.987 262.927 233.788 262.614 233.632C262.302 233.476 261.902 233.398 261.414 233.398C260.747 233.398 260.19 233.552 259.745 233.859C259.305 234.162 259.085 234.548 259.085 235.017C259.085 235.434 259.236 235.763 259.539 236.004C259.842 236.246 260.316 236.447 260.96 236.608L262.579 237.006C263.554 237.242 264.281 237.605 264.759 238.092C265.238 238.575 265.477 239.198 265.477 239.96C265.477 240.585 265.297 241.144 264.937 241.636C264.582 242.129 264.085 242.517 263.445 242.801C262.806 243.085 262.063 243.227 261.215 243.227C260.103 243.227 259.182 242.986 258.452 242.503C257.723 242.02 257.262 241.314 257.068 240.386L258.658 239.989C258.81 240.576 259.096 241.016 259.518 241.31C259.944 241.603 260.5 241.75 261.187 241.75C261.968 241.75 262.588 241.584 263.048 241.253C263.512 240.917 263.744 240.514 263.744 240.045C263.744 239.667 263.611 239.349 263.346 239.094C263.081 238.833 262.674 238.639 262.124 238.511L260.306 238.085C259.307 237.848 258.573 237.482 258.104 236.984C257.64 236.482 257.408 235.855 257.408 235.102C257.408 234.487 257.581 233.942 257.927 233.469C258.277 232.995 258.753 232.624 259.354 232.354C259.961 232.084 260.647 231.949 261.414 231.949C262.494 231.949 263.341 232.186 263.957 232.659C264.577 233.133 265.017 233.758 265.278 234.534ZM30.9375 283.318C30.1278 283.318 29.4318 283.214 28.8494 283.006C28.267 282.802 27.7817 282.532 27.3935 282.196C27.0099 281.865 26.7045 281.509 26.4773 281.131L27.8125 280.193C27.964 280.392 28.1558 280.619 28.3878 280.875C28.6198 281.135 28.937 281.36 29.3395 281.55C29.7467 281.744 30.2794 281.841 30.9375 281.841C31.8182 281.841 32.545 281.628 33.1179 281.202C33.6908 280.776 33.9773 280.108 33.9773 279.199V276.983H33.8352C33.7121 277.182 33.5369 277.428 33.3097 277.722C33.0871 278.01 32.7652 278.268 32.3438 278.496C31.9271 278.718 31.3636 278.83 30.6534 278.83C29.7727 278.83 28.982 278.621 28.2812 278.205C27.5852 277.788 27.0336 277.182 26.6264 276.386C26.224 275.591 26.0227 274.625 26.0227 273.489C26.0227 272.371 26.2192 271.398 26.6122 270.57C27.0052 269.736 27.5521 269.092 28.2528 268.638C28.9536 268.179 29.7633 267.949 30.6818 267.949C31.392 267.949 31.9555 268.067 32.3722 268.304C32.7936 268.536 33.1155 268.801 33.3381 269.099C33.5653 269.393 33.7405 269.634 33.8636 269.824H34.0341V268.091H35.6534V279.312C35.6534 280.25 35.4403 281.012 35.0142 281.599C34.5928 282.191 34.0246 282.625 33.3097 282.899C32.5994 283.179 31.8087 283.318 30.9375 283.318ZM30.8807 277.324C31.553 277.324 32.1212 277.17 32.5852 276.862C33.0492 276.554 33.402 276.112 33.6435 275.534C33.8849 274.956 34.0057 274.265 34.0057 273.46C34.0057 272.674 33.8873 271.981 33.6506 271.379C33.4138 270.778 33.0634 270.307 32.5994 269.966C32.1354 269.625 31.5625 269.455 30.8807 269.455C30.1705 269.455 29.5786 269.634 29.1051 269.994C28.6364 270.354 28.2836 270.837 28.0469 271.443C27.8149 272.049 27.6989 272.722 27.6989 273.46C27.6989 274.218 27.8172 274.888 28.054 275.47C28.2955 276.048 28.6506 276.502 29.1193 276.834C29.5928 277.161 30.1799 277.324 30.8807 277.324ZM42.3318 279.256C41.6405 279.256 41.0132 279.125 40.4497 278.865C39.8863 278.6 39.4388 278.219 39.1074 277.722C38.7759 277.22 38.6102 276.614 38.6102 275.903C38.6102 275.278 38.7333 274.772 38.9795 274.384C39.2258 273.991 39.5548 273.683 39.9668 273.46C40.3787 273.238 40.8332 273.072 41.3304 272.963C41.8323 272.849 42.3366 272.759 42.8432 272.693C43.5061 272.608 44.0435 272.544 44.4554 272.501C44.8721 272.454 45.1751 272.376 45.3645 272.267C45.5586 272.158 45.6557 271.969 45.6557 271.699V271.642C45.6557 270.941 45.4639 270.397 45.0804 270.009C44.7016 269.62 44.1263 269.426 43.3545 269.426C42.5544 269.426 41.927 269.601 41.4724 269.952C41.0179 270.302 40.6983 270.676 40.5136 271.074L38.9227 270.506C39.2068 269.843 39.5856 269.327 40.0591 268.957C40.5373 268.583 41.0581 268.323 41.6216 268.176C42.1898 268.025 42.7485 267.949 43.2977 267.949C43.6481 267.949 44.0506 267.991 44.5051 268.077C44.9644 268.157 45.4071 268.325 45.8332 268.581C46.2641 268.837 46.6216 269.223 46.9057 269.739C47.1898 270.255 47.3318 270.946 47.3318 271.812V279H45.6557V277.523H45.5705C45.4568 277.759 45.2674 278.013 45.0023 278.283C44.7371 278.553 44.3844 278.782 43.944 278.972C43.5037 279.161 42.9663 279.256 42.3318 279.256ZM42.5875 277.75C43.2504 277.75 43.8091 277.62 44.2636 277.359C44.7229 277.099 45.0686 276.763 45.3006 276.351C45.5373 275.939 45.6557 275.506 45.6557 275.051V273.517C45.5847 273.602 45.4284 273.68 45.1869 273.751C44.9502 273.818 44.6756 273.877 44.3631 273.929C44.0553 273.976 43.7546 274.019 43.4611 274.057C43.1723 274.09 42.9379 274.118 42.758 274.142C42.3223 274.199 41.9152 274.291 41.5364 274.419C41.1623 274.542 40.8593 274.729 40.6273 274.98C40.4 275.226 40.2864 275.562 40.2864 275.989C40.2864 276.571 40.5018 277.011 40.9327 277.31C41.3683 277.603 41.9199 277.75 42.5875 277.75ZM50.7911 279V268.091H52.4673V279H50.7911ZM51.6434 266.273C51.3167 266.273 51.035 266.161 50.7982 265.939C50.5662 265.716 50.4502 265.449 50.4502 265.136C50.4502 264.824 50.5662 264.556 50.7982 264.334C51.035 264.111 51.3167 264 51.6434 264C51.9701 264 52.2495 264.111 52.4815 264.334C52.7182 264.556 52.8366 264.824 52.8366 265.136C52.8366 265.449 52.7182 265.716 52.4815 265.939C52.2495 266.161 51.9701 266.273 51.6434 266.273ZM57.6134 272.438V279H55.9372V268.091H57.5565V269.795H57.6986C57.9543 269.241 58.3425 268.796 58.8634 268.46C59.3842 268.119 60.0565 267.949 60.8804 267.949C61.619 267.949 62.2653 268.1 62.8193 268.403C63.3733 268.702 63.8042 269.156 64.1119 269.767C64.4197 270.373 64.5736 271.14 64.5736 272.068V279H62.8974V272.182C62.8974 271.325 62.6749 270.657 62.2298 270.179C61.7848 269.696 61.174 269.455 60.3974 269.455C59.8624 269.455 59.3842 269.571 58.9628 269.803C58.5461 270.035 58.217 270.373 57.9756 270.818C57.7341 271.263 57.6134 271.803 57.6134 272.438ZM72.6103 279.227C71.5592 279.227 70.6524 278.995 69.8901 278.531C69.1326 278.062 68.5478 277.409 68.1359 276.571C67.7287 275.728 67.5251 274.748 67.5251 273.631C67.5251 272.513 67.7287 271.528 68.1359 270.676C68.5478 269.819 69.1207 269.152 69.8546 268.673C70.5933 268.19 71.455 267.949 72.4398 267.949C73.008 267.949 73.5691 268.044 74.1231 268.233C74.6771 268.422 75.1813 268.73 75.6359 269.156C76.0904 269.578 76.4526 270.136 76.7225 270.832C76.9924 271.528 77.1273 272.385 77.1273 273.403V274.114H68.7183V272.665H75.4228C75.4228 272.049 75.2997 271.5 75.0535 271.017C74.812 270.534 74.4664 270.153 74.0165 269.874C73.5715 269.594 73.0459 269.455 72.4398 269.455C71.7722 269.455 71.1946 269.62 70.7069 269.952C70.2239 270.278 69.8522 270.705 69.5918 271.23C69.3314 271.756 69.2012 272.319 69.2012 272.92V273.886C69.2012 274.71 69.3433 275.409 69.6273 275.982C69.9162 276.55 70.3163 276.983 70.8276 277.281C71.339 277.575 71.9332 277.722 72.6103 277.722C73.0506 277.722 73.4484 277.66 73.8035 277.537C74.1633 277.409 74.4735 277.22 74.7339 276.969C74.9943 276.713 75.1955 276.396 75.3376 276.017L76.9569 276.472C76.7864 277.021 76.5 277.504 76.0975 277.92C75.6951 278.332 75.1979 278.654 74.606 278.886C74.0142 279.114 73.3489 279.227 72.6103 279.227ZM84.1964 279.227C83.2873 279.227 82.4847 278.998 81.7887 278.538C81.0927 278.074 80.5482 277.421 80.1552 276.578C79.7622 275.731 79.5657 274.729 79.5657 273.574C79.5657 272.428 79.7622 271.434 80.1552 270.591C80.5482 269.748 81.0951 269.097 81.7958 268.638C82.4966 268.179 83.3062 267.949 84.2248 267.949C84.935 267.949 85.4961 268.067 85.908 268.304C86.3247 268.536 86.6419 268.801 86.8597 269.099C87.0823 269.393 87.2551 269.634 87.3782 269.824H87.5202V264.455H89.1964V279H87.5771V277.324H87.3782C87.2551 277.523 87.0799 277.774 86.8526 278.077C86.6254 278.375 86.301 278.643 85.8796 278.879C85.4582 279.111 84.8971 279.227 84.1964 279.227ZM84.4237 277.722C85.096 277.722 85.6642 277.546 86.1282 277.196C86.5922 276.841 86.945 276.351 87.1864 275.726C87.4279 275.096 87.5487 274.369 87.5487 273.545C87.5487 272.731 87.4303 272.018 87.1935 271.408C86.9568 270.792 86.6064 270.314 86.1424 269.973C85.6784 269.627 85.1055 269.455 84.4237 269.455C83.7134 269.455 83.1216 269.637 82.6481 270.001C82.1793 270.361 81.8266 270.851 81.5898 271.472C81.3578 272.087 81.2418 272.778 81.2418 273.545C81.2418 274.322 81.3602 275.027 81.5969 275.662C81.8384 276.292 82.1935 276.794 82.6623 277.168C83.1358 277.537 83.7229 277.722 84.4237 277.722ZM94.1205 279.114C93.7701 279.114 93.4695 278.988 93.2185 278.737C92.9676 278.486 92.8421 278.186 92.8421 277.835C92.8421 277.485 92.9676 277.184 93.2185 276.933C93.4695 276.682 93.7701 276.557 94.1205 276.557C94.4709 276.557 94.7716 276.682 95.0225 276.933C95.2735 277.184 95.3989 277.485 95.3989 277.835C95.3989 278.067 95.3398 278.28 95.2214 278.474C95.1077 278.669 94.9539 278.825 94.7597 278.943C94.5703 279.057 94.3573 279.114 94.1205 279.114ZM100.028 279.114C99.678 279.114 99.3773 278.988 99.1264 278.737C98.8754 278.486 98.7499 278.186 98.7499 277.835C98.7499 277.485 98.8754 277.184 99.1264 276.933C99.3773 276.682 99.678 276.557 100.028 276.557C100.379 276.557 100.679 276.682 100.93 276.933C101.181 277.184 101.307 277.485 101.307 277.835C101.307 278.067 101.248 278.28 101.129 278.474C101.016 278.669 100.862 278.825 100.668 278.943C100.478 279.057 100.265 279.114 100.028 279.114ZM105.936 279.114C105.586 279.114 105.285 278.988 105.034 278.737C104.783 278.486 104.658 278.186 104.658 277.835C104.658 277.485 104.783 277.184 105.034 276.933C105.285 276.682 105.586 276.557 105.936 276.557C106.287 276.557 106.587 276.682 106.838 276.933C107.089 277.184 107.215 277.485 107.215 277.835C107.215 278.067 107.155 278.28 107.037 278.474C106.923 278.669 106.769 278.825 106.575 278.943C106.386 279.057 106.173 279.114 105.936 279.114Z" fill="#1A2434"/>
<path opacity="0.7" d="M26.2642 333V318.455H29.3395V330.464H35.5753V333H26.2642ZM42.9266 333.213C41.8045 333.213 40.8386 332.986 40.0289 332.531C39.224 332.072 38.6037 331.423 38.1681 330.585C37.7325 329.742 37.5147 328.746 37.5147 327.595C37.5147 326.473 37.7325 325.488 38.1681 324.641C38.6037 323.793 39.2169 323.133 40.0076 322.659C40.8031 322.186 41.7358 321.949 42.8059 321.949C43.5256 321.949 44.1956 322.065 44.8158 322.297C45.4408 322.524 45.9853 322.867 46.4494 323.327C46.9181 323.786 47.2827 324.364 47.5431 325.06C47.8035 325.751 47.9337 326.561 47.9337 327.489V328.32H38.7221V326.445H45.0857C45.0857 326.009 44.991 325.623 44.8016 325.287C44.6122 324.951 44.3495 324.688 44.0133 324.499C43.6818 324.304 43.296 324.207 42.8556 324.207C42.3963 324.207 41.9891 324.314 41.634 324.527C41.2836 324.735 41.009 325.017 40.8102 325.372C40.6113 325.723 40.5095 326.113 40.5048 326.544V328.327C40.5048 328.866 40.6042 329.333 40.8031 329.726C41.0067 330.119 41.2931 330.422 41.6624 330.635C42.0317 330.848 42.4697 330.955 42.9763 330.955C43.3125 330.955 43.6203 330.907 43.8996 330.812C44.179 330.718 44.4181 330.576 44.617 330.386C44.8158 330.197 44.9674 329.965 45.0715 329.69L47.8698 329.875C47.7278 330.547 47.4366 331.134 46.9962 331.636C46.5606 332.134 45.9972 332.522 45.3059 332.801C44.6193 333.076 43.8263 333.213 42.9266 333.213ZM53.419 333.206C52.7229 333.206 52.1027 333.085 51.5582 332.844C51.0137 332.598 50.5828 332.235 50.2656 331.757C49.9531 331.274 49.7968 330.673 49.7968 329.953C49.7968 329.347 49.9081 328.838 50.1306 328.426C50.3531 328.014 50.6562 327.683 51.0397 327.432C51.4232 327.181 51.8588 326.991 52.3465 326.864C52.8389 326.736 53.355 326.646 53.8948 326.594C54.5293 326.527 55.0406 326.466 55.4289 326.409C55.8172 326.348 56.0989 326.258 56.2741 326.139C56.4493 326.021 56.5369 325.846 56.5369 325.614V325.571C56.5369 325.121 56.3948 324.773 56.1107 324.527C55.8314 324.281 55.4336 324.158 54.9175 324.158C54.373 324.158 53.9398 324.278 53.6178 324.52C53.2959 324.757 53.0828 325.055 52.9786 325.415L50.1803 325.188C50.3224 324.525 50.6017 323.952 51.0184 323.469C51.4351 322.981 51.9725 322.607 52.6306 322.347C53.2935 322.081 54.0605 321.949 54.9317 321.949C55.5378 321.949 56.1178 322.02 56.6718 322.162C57.2305 322.304 57.7253 322.524 58.1562 322.822C58.5918 323.121 58.9351 323.504 59.186 323.973C59.437 324.437 59.5624 324.993 59.5624 325.642V333H56.6931V331.487H56.6079C56.4327 331.828 56.1983 332.129 55.9048 332.389C55.6112 332.645 55.2585 332.846 54.8465 332.993C54.4346 333.135 53.9587 333.206 53.419 333.206ZM54.2854 331.118C54.7305 331.118 55.1235 331.03 55.4644 330.855C55.8053 330.675 56.0728 330.434 56.267 330.131C56.4611 329.828 56.5582 329.484 56.5582 329.101V327.943C56.4635 328.005 56.3333 328.062 56.1675 328.114C56.0066 328.161 55.8243 328.206 55.6207 328.249C55.4171 328.286 55.2135 328.322 55.0099 328.355C54.8063 328.384 54.6216 328.41 54.4559 328.433C54.1008 328.485 53.7906 328.568 53.5255 328.682C53.2603 328.795 53.0544 328.949 52.9076 329.143C52.7608 329.333 52.6874 329.57 52.6874 329.854C52.6874 330.266 52.8366 330.58 53.1349 330.798C53.4379 331.011 53.8214 331.118 54.2854 331.118ZM62.3097 333V322.091H65.243V323.994H65.3566C65.5555 323.317 65.8893 322.806 66.358 322.46C66.8268 322.11 67.3665 321.935 67.9773 321.935C68.1289 321.935 68.2922 321.944 68.4674 321.963C68.6426 321.982 68.7965 322.008 68.929 322.041V324.726C68.787 324.683 68.5905 324.645 68.3396 324.612C68.0886 324.579 67.859 324.562 67.6506 324.562C67.2056 324.562 66.8078 324.66 66.4575 324.854C66.1118 325.043 65.8372 325.308 65.6336 325.649C65.4347 325.99 65.3353 326.383 65.3353 326.828V333H62.3097ZM73.9189 326.693V333H70.8933V322.091H73.7768V324.016H73.9047C74.1462 323.381 74.551 322.879 75.1192 322.51C75.6874 322.136 76.3763 321.949 77.1859 321.949C77.9435 321.949 78.604 322.115 79.1675 322.446C79.7309 322.777 80.1689 323.251 80.4814 323.866C80.7939 324.477 80.9501 325.206 80.9501 326.054V333H77.9246V326.594C77.9293 325.926 77.7589 325.405 77.4132 325.031C77.0676 324.652 76.5917 324.463 75.9857 324.463C75.5785 324.463 75.2186 324.551 74.9061 324.726C74.5983 324.901 74.3569 325.157 74.1817 325.493C74.0112 325.824 73.9236 326.224 73.9189 326.693ZM88.7636 333V322.091H91.6472V324.016H91.775C92.0023 323.376 92.3811 322.872 92.9114 322.503C93.4417 322.134 94.0761 321.949 94.8148 321.949C95.5629 321.949 96.1997 322.136 96.7253 322.51C97.2509 322.879 97.6012 323.381 97.7764 324.016H97.8901C98.1126 323.391 98.5151 322.891 99.0974 322.517C99.6846 322.138 100.378 321.949 101.178 321.949C102.196 321.949 103.023 322.273 103.657 322.922C104.296 323.566 104.616 324.48 104.616 325.663V333H101.597V326.26C101.597 325.654 101.436 325.199 101.114 324.896C100.793 324.593 100.39 324.442 99.9071 324.442C99.3579 324.442 98.9294 324.617 98.6216 324.967C98.3138 325.313 98.1599 325.77 98.1599 326.338V333H95.2267V326.196C95.2267 325.661 95.0728 325.235 94.7651 324.918C94.462 324.6 94.0619 324.442 93.5648 324.442C93.2286 324.442 92.9256 324.527 92.6557 324.697C92.3905 324.863 92.1798 325.098 92.0236 325.401C91.8673 325.699 91.7892 326.049 91.7892 326.452V333H88.7636ZM112.335 333.213C111.232 333.213 110.278 332.979 109.473 332.51C108.672 332.036 108.055 331.378 107.619 330.536C107.183 329.688 106.965 328.705 106.965 327.588C106.965 326.461 107.183 325.476 107.619 324.634C108.055 323.786 108.672 323.128 109.473 322.659C110.278 322.186 111.232 321.949 112.335 321.949C113.438 321.949 114.39 322.186 115.19 322.659C115.995 323.128 116.615 323.786 117.051 324.634C117.486 325.476 117.704 326.461 117.704 327.588C117.704 328.705 117.486 329.688 117.051 330.536C116.615 331.378 115.995 332.036 115.19 332.51C114.39 332.979 113.438 333.213 112.335 333.213ZM112.349 330.869C112.851 330.869 113.27 330.727 113.606 330.443C113.942 330.154 114.196 329.761 114.366 329.264C114.541 328.767 114.629 328.201 114.629 327.567C114.629 326.932 114.541 326.366 114.366 325.869C114.196 325.372 113.942 324.979 113.606 324.69C113.27 324.402 112.851 324.257 112.349 324.257C111.842 324.257 111.416 324.402 111.071 324.69C110.73 324.979 110.472 325.372 110.296 325.869C110.126 326.366 110.041 326.932 110.041 327.567C110.041 328.201 110.126 328.767 110.296 329.264C110.472 329.761 110.73 330.154 111.071 330.443C111.416 330.727 111.842 330.869 112.349 330.869ZM120.071 333V322.091H123.005V323.994H123.118C123.317 323.317 123.651 322.806 124.12 322.46C124.588 322.11 125.128 321.935 125.739 321.935C125.891 321.935 126.054 321.944 126.229 321.963C126.404 321.982 126.558 322.008 126.691 322.041V324.726C126.549 324.683 126.352 324.645 126.101 324.612C125.85 324.579 125.621 324.562 125.412 324.562C124.967 324.562 124.57 324.66 124.219 324.854C123.874 325.043 123.599 325.308 123.395 325.649C123.196 325.99 123.097 326.383 123.097 326.828V333H120.071ZM133.119 333.213C131.997 333.213 131.031 332.986 130.221 332.531C129.416 332.072 128.796 331.423 128.36 330.585C127.925 329.742 127.707 328.746 127.707 327.595C127.707 326.473 127.925 325.488 128.36 324.641C128.796 323.793 129.409 323.133 130.2 322.659C130.995 322.186 131.928 321.949 132.998 321.949C133.718 321.949 134.388 322.065 135.008 322.297C135.633 322.524 136.178 322.867 136.642 323.327C137.11 323.786 137.475 324.364 137.735 325.06C137.996 325.751 138.126 326.561 138.126 327.489V328.32H128.914V326.445H135.278C135.278 326.009 135.183 325.623 134.994 325.287C134.804 324.951 134.542 324.688 134.205 324.499C133.874 324.304 133.488 324.207 133.048 324.207C132.589 324.207 132.181 324.314 131.826 324.527C131.476 324.735 131.201 325.017 131.002 325.372C130.803 325.723 130.702 326.113 130.697 326.544V328.327C130.697 328.866 130.796 329.333 130.995 329.726C131.199 330.119 131.485 330.422 131.855 330.635C132.224 330.848 132.662 330.955 133.169 330.955C133.505 330.955 133.812 330.907 134.092 330.812C134.371 330.718 134.61 330.576 134.809 330.386C135.008 330.197 135.16 329.965 135.264 329.69L138.062 329.875C137.92 330.547 137.629 331.134 137.188 331.636C136.753 332.134 136.189 332.522 135.498 332.801C134.812 333.076 134.018 333.213 133.119 333.213Z" fill="#1A2434"/>
<g opacity="0.8" clip-path="url(#clip1_8_976)">
<path d="M158.75 326H175.25" stroke="#1A2434" stroke-width="2" stroke-linecap="round" stroke-linejoin="round"/>
<path d="M168.5 319.25L175.25 326L168.5 332.75" stroke="#1A2434" stroke-width="2" stroke-linecap="round" stroke-linejoin="round"/>
</g>
<defs>
<clipPath id="clip0_8_976">
<rect width="80" height="80" fill="white" transform="translate(25 25)"/>
</clipPath>
<clipPath id="clip1_8_976">
<rect width="24" height="24" fill="white" transform="translate(155 314)"/>
</clipPath>
</defs>
</svg>
