<svg width="96" height="96" viewBox="0 0 96 96" fill="none" xmlns="http://www.w3.org/2000/svg">
<g filter="url(#filter0_d_8_526)">
<rect x="8" y="8" width="64" height="64" rx="32" fill="#A4074D" shape-rendering="crispEdges"/>
<rect x="10" y="10" width="60" height="60" rx="30" stroke="#F9FCFF" stroke-width="4" shape-rendering="crispEdges"/>
<path d="M22.6534 33.7045C23.2519 33.7045 23.8277 33.8049 24.3807 34.0057C24.9375 34.2064 25.4337 34.5265 25.8693 34.9659C26.3087 35.4053 26.6553 35.9886 26.9091 36.7159C27.1667 37.4394 27.2973 38.3277 27.3011 39.3807C27.3011 40.3693 27.1894 41.2519 26.9659 42.0284C26.7462 42.8011 26.4299 43.4583 26.017 44C25.6042 44.5417 25.1061 44.9545 24.5227 45.2386C23.9394 45.5189 23.2879 45.6591 22.5682 45.6591C21.7917 45.6591 21.1061 45.5095 20.5114 45.2102C19.9167 44.9072 19.4375 44.4962 19.0739 43.9773C18.714 43.4545 18.4962 42.8674 18.4205 42.2159H20.8466C20.9413 42.6402 21.1402 42.9697 21.4432 43.2045C21.7462 43.4356 22.1212 43.5511 22.5682 43.5511C23.3258 43.5511 23.9015 43.2216 24.2955 42.5625C24.6894 41.8996 24.8883 40.9924 24.892 39.8409H24.8125C24.6383 40.1818 24.4034 40.4754 24.108 40.7216C23.8125 40.964 23.4735 41.1515 23.0909 41.2841C22.7121 41.4167 22.3087 41.483 21.8807 41.483C21.1951 41.483 20.5833 41.322 20.0455 41C19.5076 40.678 19.0833 40.2348 18.7727 39.6705C18.4621 39.1061 18.3068 38.4621 18.3068 37.7386C18.303 36.9583 18.483 36.2633 18.8466 35.6534C19.2102 35.0436 19.7178 34.5663 20.3693 34.2216C21.0246 33.8731 21.786 33.7008 22.6534 33.7045ZM22.6705 35.6364C22.2879 35.6364 21.947 35.7273 21.6477 35.9091C21.3523 36.0909 21.1174 36.3352 20.9432 36.642C20.7727 36.9489 20.6894 37.2917 20.6932 37.6705C20.6932 38.053 20.7765 38.3977 20.9432 38.7045C21.1136 39.0076 21.3447 39.25 21.6364 39.4318C21.9318 39.6098 22.2689 39.6989 22.6477 39.6989C22.9318 39.6989 23.1951 39.6458 23.4375 39.5398C23.6799 39.4337 23.8902 39.2879 24.0682 39.1023C24.25 38.9129 24.392 38.6951 24.4943 38.4489C24.5966 38.2027 24.6477 37.9413 24.6477 37.6648C24.6439 37.2973 24.5568 36.9602 24.3864 36.6534C24.2159 36.3466 23.9811 36.1004 23.6818 35.9148C23.3826 35.7292 23.0455 35.6364 22.6705 35.6364ZM33.8882 45.7557C32.9109 45.7519 32.07 45.5114 31.3655 45.0341C30.6647 44.5568 30.1249 43.8655 29.7461 42.9602C29.3711 42.0549 29.1855 40.9659 29.1893 39.6932C29.1893 38.4242 29.3768 37.3428 29.7518 36.4489C30.1306 35.5549 30.6704 34.875 31.3711 34.4091C32.0757 33.9394 32.9147 33.7045 33.8882 33.7045C34.8617 33.7045 35.6988 33.9394 36.3995 34.4091C37.1041 34.8788 37.6458 35.5606 38.0245 36.4545C38.4033 37.3447 38.5908 38.4242 38.587 39.6932C38.587 40.9697 38.3977 42.0606 38.0189 42.9659C37.6439 43.8712 37.106 44.5625 36.4052 45.0398C35.7045 45.517 34.8655 45.7557 33.8882 45.7557ZM33.8882 43.7159C34.5548 43.7159 35.087 43.3807 35.4848 42.7102C35.8825 42.0398 36.0795 41.0341 36.0757 39.6932C36.0757 38.8106 35.9848 38.0758 35.803 37.4886C35.6249 36.9015 35.3711 36.4602 35.0416 36.1648C34.7158 35.8693 34.3314 35.7216 33.8882 35.7216C33.2253 35.7216 32.695 36.053 32.2973 36.7159C31.8995 37.3788 31.6988 38.3712 31.695 39.6932C31.695 40.5871 31.784 41.3333 31.962 41.9318C32.1439 42.5265 32.3995 42.9735 32.7291 43.2727C33.0586 43.5682 33.445 43.7159 33.8882 43.7159ZM45.2238 45.7557C44.2465 45.7519 43.4056 45.5114 42.7011 45.0341C42.0003 44.5568 41.4605 43.8655 41.0818 42.9602C40.7068 42.0549 40.5212 40.9659 40.5249 39.6932C40.5249 38.4242 40.7124 37.3428 41.0874 36.4489C41.4662 35.5549 42.006 34.875 42.7068 34.4091C43.4113 33.9394 44.2503 33.7045 45.2238 33.7045C46.1973 33.7045 47.0344 33.9394 47.7352 34.4091C48.4397 34.8788 48.9814 35.5606 49.3602 36.4545C49.739 37.3447 49.9265 38.4242 49.9227 39.6932C49.9227 40.9697 49.7333 42.0606 49.3545 42.9659C48.9795 43.8712 48.4416 44.5625 47.7409 45.0398C47.0401 45.517 46.2011 45.7557 45.2238 45.7557ZM45.2238 43.7159C45.8905 43.7159 46.4227 43.3807 46.8204 42.7102C47.2181 42.0398 47.4151 41.0341 47.4113 39.6932C47.4113 38.8106 47.3204 38.0758 47.1386 37.4886C46.9605 36.9015 46.7068 36.4602 46.3772 36.1648C46.0515 35.8693 45.667 35.7216 45.2238 35.7216C44.5609 35.7216 44.0306 36.053 43.6329 36.7159C43.2352 37.3788 43.0344 38.3712 43.0306 39.6932C43.0306 40.5871 43.1196 41.3333 43.2977 41.9318C43.4795 42.5265 43.7352 42.9735 44.0647 43.2727C44.3943 43.5682 44.7806 43.7159 45.2238 43.7159ZM55.4742 43.7273V35.6818H57.5083V43.7273H55.4742ZM52.4685 40.7216V38.6875H60.514V40.7216H52.4685Z" fill="white"/>
</g>
<defs>
<filter id="filter0_d_8_526" x="0" y="0" width="96" height="96" filterUnits="userSpaceOnUse" color-interpolation-filters="sRGB">
<feFlood flood-opacity="0" result="BackgroundImageFix"/>
<feColorMatrix in="SourceAlpha" type="matrix" values="0 0 0 0 0 0 0 0 0 0 0 0 0 0 0 0 0 0 127 0" result="hardAlpha"/>
<feOffset dx="8" dy="8"/>
<feGaussianBlur stdDeviation="8"/>
<feComposite in2="hardAlpha" operator="out"/>
<feColorMatrix type="matrix" values="0 0 0 0 0 0 0 0 0 0 0 0 0 0 0 0 0 0 0.12 0"/>
<feBlend mode="normal" in2="BackgroundImageFix" result="effect1_dropShadow_8_526"/>
<feBlend mode="normal" in="SourceGraphic" in2="effect1_dropShadow_8_526" result="shape"/>
</filter>
</defs>
</svg>
